<?xml version="1.0" encoding="UTF-8" standalone="no"?>
<!DOCTYPE svg PUBLIC "-//W3C//DTD SVG 1.1//EN"
 "http://www.w3.org/Graphics/SVG/1.1/DTD/svg11.dtd">
<!-- Generated by graphviz version 2.43.0 (0)
 -->
<!-- Title: FSM Pages: 1 -->
<svg width="510pt" height="150pt"
 viewBox="0.00 0.00 509.85 150.00" xmlns="http://www.w3.org/2000/svg" xmlns:xlink="http://www.w3.org/1999/xlink">
<g id="graph0" class="graph" transform="scale(1 1) rotate(0) translate(4 146)">
<title>FSM</title>
<polygon fill="white" stroke="transparent" points="-4,4 -4,-146 505.85,-146 505.85,4 -4,4"/>
<!-- Start -->
<g id="node1" class="node">
<title>Start</title>
<ellipse fill="none" stroke="black" cx="55.92" cy="-52" rx="55.85" ry="18"/>
<text text-anchor="middle" x="55.92" y="-49.2" font-family="Times,serif" font-size="11.00">Mission Start</text>
</g>
<!-- Travel -->
<g id="node2" class="node">
<title>Travel</title>
<path fill="none" stroke="black" d="M261.85,-70C261.85,-70 160.85,-70 160.85,-70 154.85,-70 148.85,-64 148.85,-58 148.85,-58 148.85,-46 148.85,-46 148.85,-40 154.85,-34 160.85,-34 160.85,-34 261.85,-34 261.85,-34 267.85,-34 273.85,-40 273.85,-46 273.85,-46 273.85,-58 273.85,-58 273.85,-64 267.85,-70 261.85,-70"/>
<text text-anchor="middle" x="211.35" y="-55.2" font-family="Times,serif" font-size="11.00">TRAVEL</text>
<text text-anchor="middle" x="211.35" y="-43.2" font-family="Times,serif" font-size="11.00">Waypoint Traveling</text>
</g>
<!-- Start&#45;&gt;Travel -->
<g id="edge1" class="edge">
<title>Start&#45;&gt;Travel</title>
<path fill="none" stroke="black" d="M111.88,-52C120.56,-52 129.65,-52 138.65,-52"/>
<polygon fill="black" stroke="black" points="138.74,-55.5 148.74,-52 138.74,-48.5 138.74,-55.5"/>
</g>
<!-- Keep -->
<g id="node3" class="node">
<title>Keep</title>
<path fill="none" stroke="black" d="M489.85,-102C489.85,-102 406.85,-102 406.85,-102 400.85,-102 394.85,-96 394.85,-90 394.85,-90 394.85,-78 394.85,-78 394.85,-72 400.85,-66 406.85,-66 406.85,-66 489.85,-66 489.85,-66 495.85,-66 501.85,-72 501.85,-78 501.85,-78 501.85,-90 501.85,-90 501.85,-96 495.85,-102 489.85,-102"/>
<text text-anchor="middle" x="448.35" y="-87.2" font-family="Times,serif" font-size="11.00">KEEP</text>
<text text-anchor="middle" x="448.35" y="-75.2" font-family="Times,serif" font-size="11.00">Station Keeping</text>
</g>
<!-- Travel&#45;&gt;Keep -->
<g id="edge2" class="edge">
<title>Travel&#45;&gt;Keep</title>
<path fill="none" stroke="black" d="M268.88,-70.02C276.54,-71.97 284.34,-73.71 291.85,-75 322.11,-80.19 356.13,-82.54 384.61,-83.56"/>
<polygon fill="black" stroke="black" points="384.73,-87.06 394.83,-83.88 384.94,-80.07 384.73,-87.06"/>
<text text-anchor="middle" x="334.35" y="-86" font-family="Times,serif" font-size="10.00">distance ≤ 1.5 m</text>
</g>
<!-- End -->
<g id="node4" class="node">
<title>End</title>
<ellipse fill="none" stroke="black" cx="448.35" cy="-18" rx="51.93" ry="18"/>
<text text-anchor="middle" x="448.35" y="-15.2" font-family="Times,serif" font-size="11.00">Mission End</text>
</g>
<!-- Travel&#45;&gt;End -->
<g id="edge5" class="edge">
<title>Travel&#45;&gt;End</title>
<path fill="none" stroke="black" d="M263.2,-33.97C272.62,-31.22 282.46,-28.72 291.85,-27 322.65,-21.36 357.39,-18.98 386.22,-18.06"/>
<polygon fill="black" stroke="black" points="386.65,-21.55 396.55,-17.79 386.46,-14.56 386.65,-21.55"/>
<text text-anchor="middle" x="334.35" y="-30" font-family="Times,serif" font-size="10.00">lap &gt; 3</text>
</g>
<!-- Keep&#45;&gt;Travel -->
<g id="edge3" class="edge">
<title>Keep&#45;&gt;Travel</title>
<path fill="none" stroke="black" d="M418.65,-66C406.28,-59.25 391.35,-52.4 376.85,-49 347,-42 313.26,-41.4 284.14,-43.06"/>
<polygon fill="black" stroke="black" points="283.79,-39.57 274.05,-43.73 284.26,-46.56 283.79,-39.57"/>
<text text-anchor="middle" x="334.35" y="-63" font-family="Times,serif" font-size="10.00">5 min elapsed</text>
<text text-anchor="middle" x="334.35" y="-52" font-family="Times,serif" font-size="10.00">next waypoint</text>
</g>
<!-- Keep&#45;&gt;Keep -->
<g id="edge4" class="edge">
<title>Keep&#45;&gt;Keep</title>
<path fill="none" stroke="black" d="M427.73,-102.15C424.55,-111.54 431.43,-120 448.35,-120 458.66,-120 465.24,-116.86 468.09,-112.28"/>
<polygon fill="black" stroke="black" points="471.59,-112.42 468.97,-102.15 464.62,-111.81 471.59,-112.42"/>
<text text-anchor="middle" x="448.35" y="-134" font-family="Times,serif" font-size="10.00">distance &gt; 1.5 m</text>
<text text-anchor="middle" x="448.35" y="-123" font-family="Times,serif" font-size="10.00">recovery</text>
</g>
</g>
</svg>
